<?xml version="1.0" encoding="iso-8859-1"?>
<!-- Uploaded to: SVG Repo, www.svgrepo.com, Generator: SVG Repo Mixer Tools -->
<svg version="1.1" id="Layer_1" xmlns="http://www.w3.org/2000/svg" xmlns:xlink="http://www.w3.org/1999/xlink" 
	 viewBox="0 0 512 512" xml:space="preserve">
<rect x="240.339" style="fill:#6F6F6F;" width="31.319" height="75.394"/>
<polygon style="fill:#9D9D9D;" points="313.545,56.415 256,56.415 235.12,122.119 313.545,101.239 "/>
<g>
	<polygon style="fill:#D4D4D4;" points="198.456,56.415 198.456,101.239 256,122.119 256,56.415 	"/>
	<polygon style="fill:#D4D4D4;" points="361.906,101.239 256,101.239 235.12,216.956 361.906,196.076 	"/>
</g>
<polygon style="fill:#EDEDED;" points="150.094,101.239 150.094,196.076 256,216.956 256,101.239 "/>
<path style="fill:#D61322;" d="M256,162.849l-20.88,121.764l20.88,89.16c12.786,7.596,25.575,15.191,51.146,15.191
	c25.578,0,38.366-7.597,51.156-15.195l2.195-1.301l39.366-164.484L256,162.849z"/>
<path style="fill:#EC2533;" d="M112.137,207.984l39.91,166.758h0.001c13.358-7.907,26.123-16.168,52.792-16.168
	c25.581,0,38.369,7.6,51.16,15.199V162.849L112.137,207.984z"/>
<g>
	<path style="fill:#027ACD;" d="M366.299,387.233c12.225-7.262,21.88-12.998,43.158-12.998c21.278,0,30.933,5.737,43.158,12.998
		c13.723,8.152,29.276,17.391,59.153,17.391v-31.319c-21.278,0-30.933-5.737-43.158-12.998
		c-13.723-8.152-29.276-17.391-59.153-17.391c-29.878,0-45.432,9.24-59.153,17.391c-12.225,7.262-21.88,12.998-43.157,12.998
		s-30.931-5.737-43.156-12.998c-2.572-1.528-5.208-3.094-7.99-4.63l-10.441,14.965L256,391.871
		c12.061,6.657,26.879,12.753,51.146,12.753C337.024,404.624,352.577,395.384,366.299,387.233z"/>
	<path style="fill:#027ACD;" d="M366.299,440.92c12.225-7.262,21.88-12.998,43.158-12.998c21.278,0,30.933,5.737,43.158,12.998
		c13.723,8.152,29.276,17.391,59.153,17.391v-31.319c-21.278,0-30.933-5.736-43.158-12.998
		c-13.723-8.152-29.276-17.391-59.153-17.391c-29.878,0-45.432,9.24-59.153,17.391c-12.225,7.262-21.88,12.998-43.157,12.998
		s-30.931-5.736-43.156-12.998c-2.572-1.528-5.208-3.094-7.99-4.63l-10.441,14.965L256,445.559
		c12.061,6.657,26.879,12.753,51.146,12.753C337.024,458.313,352.577,449.073,366.299,440.92z"/>
	<path style="fill:#027ACD;" d="M366.299,494.609c12.225-7.262,21.88-12.998,43.158-12.998c21.278,0,30.933,5.737,43.158,12.998
		C466.338,502.761,481.89,512,511.768,512v-31.319c-21.278,0-30.933-5.737-43.158-12.998c-13.723-8.152-29.276-17.391-59.153-17.391
		c-29.878,0-45.432,9.24-59.153,17.391c-12.225,7.262-21.88,12.998-43.157,12.998s-30.931-5.737-43.156-12.998
		c-2.572-1.528-5.208-3.094-7.99-4.63l-10.441,14.965L256,499.247C268.061,505.904,282.879,512,307.146,512
		C337.024,512,352.577,502.761,366.299,494.609z"/>
</g>
<g>
	<path style="fill:#3EAFF5;" d="M204.84,342.916c-29.877,0-45.429,9.24-59.149,17.391c-12.224,7.263-21.879,12.998-43.154,12.998
		c-21.276,0-30.931-5.735-43.155-12.998c-13.722-8.152-29.273-17.391-59.15-17.391v31.319c21.276,0,30.931,5.735,43.155,12.998
		c13.722,8.152,29.273,17.391,59.15,17.391s45.429-9.24,59.149-17.391c12.224-7.263,21.879-12.998,43.154-12.998
		c21.276,0,30.93,5.735,43.155,12.998c2.576,1.53,5.217,3.099,8.005,4.638v-36.194C243.936,349.016,229.117,342.916,204.84,342.916z
		"/>
	<path style="fill:#3EAFF5;" d="M145.691,413.995c-12.224,7.263-21.879,12.998-43.154,12.998c-21.276,0-30.931-5.735-43.155-12.998
		c-13.722-8.152-29.273-17.391-59.15-17.391v31.319c21.276,0,30.931,5.735,43.155,12.998c13.722,8.152,29.273,17.391,59.15,17.391
		s45.429-9.24,59.149-17.391c12.224-7.263,21.879-12.998,43.154-12.998c21.276,0,30.93,5.735,43.155,12.998
		c2.576,1.53,5.217,3.099,8.005,4.638v-36.194c-12.064-6.66-26.883-12.761-51.16-12.761
		C174.963,396.604,159.413,405.844,145.691,413.995z"/>
	<path style="fill:#3EAFF5;" d="M145.691,467.683c-12.224,7.263-21.879,12.998-43.154,12.998c-21.276,0-30.931-5.735-43.155-12.998
		c-13.722-8.152-29.273-17.391-59.15-17.391v31.319c21.276,0,30.931,5.735,43.155,12.998C57.108,502.761,72.66,512,102.537,512
		s45.429-9.24,59.149-17.391c12.224-7.263,21.879-12.998,43.154-12.998c21.276,0,30.93,5.735,43.155,12.998
		c2.576,1.53,5.217,3.099,8.005,4.638v-36.194c-12.064-6.66-26.883-12.761-51.16-12.761
		C174.963,450.292,159.413,459.532,145.691,467.683z"/>
</g>
<polygon style="fill:#D4D4D4;" points="296.072,212.13 256,212.13 235.12,227.789 256,243.449 296.072,243.449 "/>
<rect x="215.931" y="212.131" style="fill:#EDEDED;" width="40.067" height="31.319"/>
</svg>