<svg width="432" height="80" viewBox="0 0 432 80" fill="none" xmlns="http://www.w3.org/2000/svg">
<path fill-rule="evenodd" clip-rule="evenodd" d="M316.366 11.9102C337.207 13.5307 353.576 17.1014 369.92 20.9771C423.52 33.7 440.49 49.0969 402.026 60.6088C342.218 78.4506 206.02 83.7591 101.912 70.3534C78.8554 67.3915 47.5816 64.0623 25.1831 55.5169C4.34703 47.5707 5.90585 39.8518 16.3307 33.295C26.9495 26.5677 46.7901 21.0368 62.4995 17.6755C131.179 3.01914 266.934 -5.48947 387.58 11.609C390.062 11.9487 392.584 11.81 393.345 11.3077C394.105 10.8054 392.906 10.1347 390.603 9.80663C266.413 -7.79198 126.348 0.807731 55.6587 15.8907C36.1121 20.0849 10.37 27.5381 2.43053 36.4763C-2.93544 42.5893 -0.112046 49.3834 17.9418 56.3171C41.7275 65.415 74.9461 69.071 99.4214 72.22C206.899 86.0628 347.766 80.6443 409.418 62.2096C450.825 49.8407 432.879 33.2964 375.238 19.6191C357.666 15.4245 339.702 11.6172 317.08 9.85884C314.586 9.66537 312.409 9.96837 312.359 10.5442C312.132 11.1083 314.05 11.7284 316.366 11.9102Z" fill="#016DF4"/>
</svg>