<?xml version="1.0" encoding="iso-8859-1"?>
<!-- Uploaded to: SVG Repo, www.svgrepo.com, Generator: SVG Repo Mixer Tools -->
<svg version="1.1" id="Layer_1" xmlns="http://www.w3.org/2000/svg" xmlns:xlink="http://www.w3.org/1999/xlink" 
	 viewBox="0 0 512 512" xml:space="preserve">
<polygon style="fill:#9D9D9D;" points="281.315,320.148 256,320.148 245.55,350.567 256,380.987 281.315,380.987 "/>
<g>
	<rect x="230.682" y="320.146" style="fill:#D4D4D4;" width="25.318" height="60.834"/>
	<polygon style="fill:#D4D4D4;" points="96.982,320.148 71.667,320.148 61.217,350.567 71.667,380.987 96.982,380.987 	"/>
</g>
<rect x="46.352" y="320.146" style="fill:#EDEDED;" width="25.318" height="60.834"/>
<polygon style="fill:#9D9D9D;" points="465.648,320.148 440.333,320.148 429.884,350.567 440.333,380.987 465.648,380.987 "/>
<rect x="415.023" y="320.146" style="fill:#D4D4D4;" width="25.318" height="60.834"/>
<polygon style="fill:#FFC222;" points="442.9,151.157 374.078,151.157 358.404,161.606 337.505,235.653 358.404,320.148 
	442.9,320.148 "/>
<polygon style="fill:#FEDF77;" points="273.909,151.157 253.009,235.653 273.909,320.148 358.404,320.148 358.404,161.606 
	342.731,151.157 "/>
<polygon style="fill:#FFC222;" points="273.909,115.34 187.178,115.34 171.504,125.79 150.605,217.744 171.504,320.148 
	273.909,320.148 "/>
<polygon style="fill:#FEDF77;" points="69.1,115.34 69.1,320.148 171.504,320.148 171.504,125.79 155.831,115.34 "/>
<g>
	<rect x="342.727" y="151.155" style="fill:#FF9500;" width="31.347" height="53.394"/>
	<rect x="155.826" y="115.336" style="fill:#FF9500;" width="31.347" height="53.394"/>
</g>
<g>
	<polygon style="fill:#6F6F6F;" points="512,304.475 256,304.475 235.101,320.148 256,335.822 512,335.822 	"/>
	<polygon style="fill:#6F6F6F;" points="512,396.66 512,365.313 256,365.313 235.101,380.987 256,396.66 	"/>
</g>
<g>
	<rect y="304.473" style="fill:#9D9D9D;" width="256" height="31.347"/>
	<rect y="365.317" style="fill:#9D9D9D;" width="256" height="31.347"/>
</g>
</svg>