<?xml version="1.0" encoding="iso-8859-1"?>
<!-- Uploaded to: SVG Repo, www.svgrepo.com, Generator: SVG Repo Mixer Tools -->
<svg version="1.1" id="Layer_1" xmlns="http://www.w3.org/2000/svg" xmlns:xlink="http://www.w3.org/1999/xlink" 
	 viewBox="0 0 512 512" xml:space="preserve">
<path style="fill:#D61322;" d="M210.976,512h47.43l118.522-182.804v-14.647c0-43.308-35.108-78.415-78.415-78.415h-29.573
	l-78.864,25.614L210.976,512z"/>
<path style="fill:#EC2533;" d="M153.012,236.133H123.44c-43.308,0-78.415,35.108-78.415,78.415V512h165.952V261.747L153.012,236.133
	z"/>
<polygon style="fill:#FFC222;" points="466.976,329.196 418.273,329.196 402.6,339.646 386.926,329.196 362.69,329.196 
	341.791,425.621 362.69,512 466.976,512 "/>
<polygon style="fill:#FEDF77;" points="258.405,329.196 258.405,512 362.69,512 362.69,329.196 338.453,329.196 322.78,339.646 
	307.106,329.196 "/>
<rect x="307.105" y="329.195" style="fill:#FF9500;" width="31.347" height="58.796"/>
<rect x="386.925" y="329.195" style="fill:#F17A00;" width="31.347" height="58.796"/>
<polygon style="fill:#FDDC99;" points="210.976,236.133 190.076,262.617 210.976,309.433 268.938,236.133 "/>
<g>
	<polygon style="fill:#FEE3B5;" points="153.012,236.133 210.976,309.433 210.976,309.433 210.976,236.133 	"/>
	<path style="fill:#FEE3B5;" d="M190.076,50.33l20.899,191.39c12.097,0,23.733-1.965,34.613-5.586
		c43.543-14.49,74.942-55.56,74.942-103.969V71.229L190.076,50.33z"/>
</g>
<path style="fill:#FFF3D8;" d="M102.579,71.229h-1.16v60.935c0,48.409,31.4,89.481,74.943,103.969
	c10.881,3.621,22.517,5.586,34.613,5.586V50.33L102.579,71.229z"/>
<path style="fill:#D61322;" d="M393.522,39.882h-71.83c-0.641,0-1.16-0.519-1.16-1.16C320.531,17.337,303.194,0,281.809,0h-70.834
	l-20.899,35.614l20.899,35.614h109.555h72.99c0.641,0,1.16-0.519,1.16-1.16V41.042C394.682,40.402,394.162,39.882,393.522,39.882z"
	/>
<path style="fill:#EC2533;" d="M210.976,0h-70.834c-21.386,0-38.722,17.337-38.722,38.722v31.347c0,0.641,0.519,1.16,1.16,1.16
	h108.396L210.976,0L210.976,0z"/>
<polygon style="fill:#FFC222;" points="165.49,313.523 126.896,313.523 116.446,329.196 126.896,344.87 165.49,344.87 "/>
<rect x="88.304" y="313.522" style="fill:#FEDF77;" width="38.595" height="31.347"/>
</svg>