<?xml version="1.0" encoding="iso-8859-1"?>
<!-- Uploaded to: SVG Repo, www.svgrepo.com, Generator: SVG Repo Mixer Tools -->
<svg version="1.1" id="Layer_1" xmlns="http://www.w3.org/2000/svg" xmlns:xlink="http://www.w3.org/1999/xlink" 
	 viewBox="0 0 512 512" xml:space="preserve">
<rect x="302.124" y="71.372" style="fill:#6F6F6F;" width="31.348" height="304.549"/>
<polygon style="fill:#FF9500;" points="399.8,241.38 420.7,375.921 477.521,375.921 477.521,262.28 "/>
<polygon style="fill:#FFC222;" points="420.7,241.38 363.879,262.28 363.879,375.921 420.7,375.921 "/>
<rect x="405.03" y="255.794" style="fill:#F17A00;" width="31.348" height="48.287"/>
<polygon style="fill:#FFC222;" points="420.7,148.638 399.8,208.07 420.7,262.28 477.521,262.28 477.521,148.638 "/>
<rect x="363.88" y="148.635" style="fill:#FEDF77;" width="56.824" height="113.638"/>
<rect x="405.03" y="148.635" style="fill:#FF9500;" width="31.348" height="41.795"/>
<polygon style="fill:#6F6F6F;" points="512,360.247 391.862,360.247 370.962,375.92 391.862,391.595 512,391.595 "/>
<polygon style="fill:#9D9D9D;" points="271.725,360.247 250.825,375.921 271.725,391.595 391.862,391.595 391.862,360.247 "/>
<polygon style="fill:#027ACD;" points="271.725,289.509 244.564,160.051 135.862,160.051 114.963,289.509 135.862,391.595 
	271.725,391.595 "/>
<polygon style="fill:#3EAFF5;" points="87.284,160.051 87.284,289.509 0,289.509 0,391.595 135.862,391.595 135.862,289.509 
	156.762,245.34 135.862,205.316 135.862,160.051 "/>
<path style="fill:#6F6F6F;" d="M211.28,360.67l-10.45,41.454l10.45,38.504c22.045,0,39.979-17.934,39.979-39.98
	S233.325,360.67,211.28,360.67z"/>
<path style="fill:#9D9D9D;" d="M171.301,400.649c0,22.045,17.934,39.98,39.98,39.98v-79.959
	C189.236,360.67,171.301,378.605,171.301,400.649z"/>
<path style="fill:#D4D4D4;" d="M211.28,381.569l-10.45,19.081l10.45,19.081c10.52,0,19.081-8.559,19.081-19.081
	C230.361,390.128,221.802,381.569,211.28,381.569z"/>
<path style="fill:#EDEDED;" d="M192.199,400.649c0,10.52,8.559,19.081,19.081,19.081v-38.161
	C200.76,381.569,192.199,390.128,192.199,400.649z"/>
<path style="fill:#6F6F6F;" d="M60.445,360.67l-10.45,41.454l10.45,38.504c22.045,0,39.98-17.934,39.98-39.98
	S82.49,360.67,60.445,360.67z"/>
<path style="fill:#9D9D9D;" d="M20.465,400.649c0,22.045,17.934,39.98,39.98,39.98v-79.959
	C38.4,360.67,20.465,378.605,20.465,400.649z"/>
<path style="fill:#D4D4D4;" d="M60.445,381.569l-10.45,19.081l10.45,19.081c10.52,0,19.081-8.559,19.081-19.081
	C79.525,390.128,70.965,381.569,60.445,381.569z"/>
<path style="fill:#EDEDED;" d="M41.364,400.649c0,10.52,8.559,19.081,19.081,19.081v-38.161
	C49.924,381.569,41.364,390.128,41.364,400.649z"/>
<polygon style="fill:#FF9500;" points="207.81,205.316 180.669,205.316 159.768,251.435 180.669,289.509 225.474,289.509 "/>
<rect x="135.863" y="205.312" style="fill:#FFC222;" width="44.806" height="84.191"/>
</svg>