<?xml version="1.0" encoding="iso-8859-1"?>
<!-- Uploaded to: SVG Repo, www.svgrepo.com, Generator: SVG Repo Mixer Tools -->
<svg version="1.1" id="Layer_1" xmlns="http://www.w3.org/2000/svg" xmlns:xlink="http://www.w3.org/1999/xlink" 
	 viewBox="0 0 512 512" xml:space="preserve">
<g>
	<path style="fill:#027ACD;" d="M70.196,210.495l-30.953-4.955c7.324-45.747,28.625-87.358,61.603-120.336l19.11,0.002l3.055,22.163
		C94.733,135.649,76.469,171.309,70.196,210.495z"/>
	<path style="fill:#027ACD;" d="M441.804,210.496c-6.273-39.185-24.535-74.845-52.813-103.124l3.053-22.165h19.113
		c32.977,32.978,54.277,74.589,61.601,120.335L441.804,210.496z"/>
	<path style="fill:#027ACD;" d="M354.264,480.864v-31.347c47.282,0,85.747-38.466,85.747-85.747v-27.486h31.347v27.486
		C471.358,428.336,418.83,480.864,354.264,480.864z"/>
</g>
<path style="fill:#3EAFF5;" d="M256,8.333L256,8.333l-20.9,27.716L256,64.697l0,0c48.433,0,92.351,19.703,124.159,51.515
	l39.908-39.919C378.078,34.303,320.071,8.333,256,8.333z"/>
<path style="fill:#7ACDFF;" d="M91.933,76.293l39.914,39.913C163.655,84.397,207.57,64.697,256,64.697V8.333
	C191.928,8.334,133.921,34.304,91.933,76.293z"/>
<polygon style="fill:#3EAFF5;" points="84.914,197.568 42.456,197.568 21.557,280.669 42.456,363.77 84.914,363.77 "/>
<path style="fill:#7ACDFF;" d="M40.319,197.568C18.052,197.568,0,215.621,0,237.889v85.561c0,22.268,18.052,40.319,40.319,40.319
	h2.137V197.568H40.319z"/>
<path style="fill:#3EAFF5;" d="M471.68,197.568h-2.137l-20.899,83.101l20.899,83.101h2.137c22.268,0,40.319-18.052,40.319-40.319
	v-85.561C512,215.621,493.948,197.568,471.68,197.568z"/>
<rect x="427.092" y="197.569" style="fill:#7ACDFF;" width="42.456" height="166.201"/>
<path style="fill:#3EAFF5;" d="M331.461,426.714h-25.79l-20.899,38.476l20.899,38.476h25.79c21.216,0,38.476-17.261,38.476-38.476
	C369.938,443.975,352.677,426.714,331.461,426.714z"/>
<path style="fill:#7ACDFF;" d="M279.88,426.714c-21.216,0-38.476,17.261-38.476,38.476c0,21.216,17.261,38.476,38.476,38.476h25.79
	v-76.953H279.88z"/>
<g>
	<polygon style="fill:#D61322;" points="254.938,233.028 247.127,233.028 247.127,233.028 236.677,248.163 247.127,264.375 
		247.127,264.375 254.938,264.375 254.938,305.1 286.285,305.1 286.285,192.303 254.938,192.303 	"/>
	<path style="fill:#D61322;" d="M352.885,233.028L352.885,233.028l-10.45,15.673l10.45,15.673l0,0c4.308,0,7.813,3.505,7.813,7.813
		V305.1h31.347v-32.912C392.044,250.595,374.477,233.028,352.885,233.028z"/>
	<path style="fill:#D61322;" d="M163.72,268.466c21.314-4.845,34.555-19.701,34.555-38.77c0-21.378-17.221-38.798-38.517-39.143
		l-10.45,15.826l10.45,15.537c4.008,0.328,7.17,3.688,7.17,7.78c0,1.298-0.006,4.954-7.17,7.37l-10.45,17.549l10.45,15.145
		C161.228,269.034,162.632,268.712,163.72,268.466z"/>
	<polygon style="fill:#D61322;" points="159.758,306.866 199.559,306.866 199.559,275.519 159.758,275.519 149.308,291.192 	"/>
</g>
<g>
	<path style="fill:#EC2533;" d="M159.115,190.536c-21.593,0-39.16,17.567-39.16,39.16h31.347c0-4.308,3.505-7.813,7.813-7.813
		c0.217,0,0.429,0.016,0.643,0.032v-31.364C159.542,190.549,159.33,190.536,159.115,190.536z"/>
	<path style="fill:#EC2533;" d="M154.157,275.519c1.6-3.14,3.658-4.802,5.601-5.759v-32.693c-0.884,0.298-1.87,0.579-2.985,0.832
		c-11.503,2.614-20.935,8.825-27.275,17.961c-6.331,9.123-9.541,21.011-9.541,35.333v15.673h39.801v-31.347H154.157z"/>
	<path style="fill:#EC2533;" d="M239.314,225.215v-32.912h-31.347v32.912c0,21.593,17.567,39.16,39.16,39.16v-31.347
		C242.819,233.028,239.314,229.523,239.314,225.215z"/>
	<polygon style="fill:#EC2533;" points="345.072,233.028 345.072,192.303 313.725,192.303 313.725,305.1 345.072,305.1 
		345.072,264.375 352.884,264.375 352.884,233.028 	"/>
</g>
</svg>