<?xml version="1.0" encoding="iso-8859-1"?>
<!-- Uploaded to: SVG Repo, www.svgrepo.com, Generator: SVG Repo Mixer Tools -->
<svg version="1.1" id="Layer_1" xmlns="http://www.w3.org/2000/svg" xmlns:xlink="http://www.w3.org/1999/xlink" 
	 viewBox="0 0 512 512" xml:space="preserve">
<rect x="415.89" y="137.226" style="fill:#9D9D9D;" width="31.347" height="295.309"/>
<path style="fill:#FF9500;" d="M431.563,0l-20.899,80.437l20.899,80.437c44.425,0,80.437-36.013,80.437-80.437S475.987,0,431.563,0z
	"/>
<path style="fill:#FFC222;" d="M351.124,80.437c0,44.425,36.013,80.437,80.437,80.437V0C387.138,0,351.124,36.013,351.124,80.437z"
	/>
<rect x="186.431" y="354.994" style="fill:#6F6F6F;" width="31.347" height="76.842"/>
<polygon style="fill:#D4D4D4;" points="94.544,433.236 40.784,433.236 61.683,512 94.544,512 "/>
<rect x="28.822" y="433.236" style="fill:#EDEDED;" width="32.861" height="78.764"/>
<polygon style="fill:#9D9D9D;" points="483.177,433.236 429.418,433.236 450.317,512 483.177,512 "/>
<rect x="417.458" y="433.236" style="fill:#D4D4D4;" width="32.861" height="78.764"/>
<polygon style="fill:#FFC222;" points="306.385,141.734 257.682,141.734 242.009,152.184 226.335,141.734 202.099,141.734 
	181.2,268.618 202.099,354.998 306.385,354.998 "/>
<polygon style="fill:#FEDF77;" points="97.814,141.734 97.814,354.998 202.099,354.998 202.099,141.734 177.863,141.734 
	162.188,152.184 146.516,141.734 "/>
<rect x="146.516" y="141.73" style="fill:#FF9500;" width="31.347" height="58.796"/>
<rect x="226.335" y="141.73" style="fill:#F17A00;" width="31.347" height="58.796"/>
<path style="fill:#FEDF77;" d="M474.642,59.525l-22.165-22.165l-16.737,16.737c-1.36-0.214-2.755-0.328-4.176-0.328
	c-14.729,0-26.669,11.94-26.669,26.669s11.94,26.669,26.669,26.669c14.729,0,26.669-11.94,26.669-26.669
	c0-1.421-0.114-2.815-0.328-4.175L474.642,59.525z"/>
<polygon style="fill:#6F6F6F;" points="512,408.898 256,408.898 235.101,433.236 256,457.573 512,457.573 "/>
<g>
	<rect y="408.9" style="fill:#9D9D9D;" width="256" height="48.676"/>
	<polygon style="fill:#9D9D9D;" points="362.716,339.324 202.1,339.324 181.2,354.998 202.1,370.671 362.716,370.671 	"/>
</g>
<rect x="41.482" y="339.32" style="fill:#D4D4D4;" width="160.622" height="31.347"/>
</svg>